<svg xmlns="http://www.w3.org/2000/svg" viewBox="0 0 24 24">
<path d="
M 20.3875 21.4085 
C 20.014 21.4085 19.7125 21.0305 19.7125 20.5625
C 19.7125 20.099 20.014 19.721 20.3875 19.721
C 20.761 19.721 21.0625 20.099 21.0625 20.5625
C 21.0625 21.0305 20.761 21.4085 20.3875 21.4085
M 18.7 17.8625 
C 18.142 17.8625 17.6875 17.4845 17.6875 17.021
C 17.6875 16.553 18.142 16.175 18.7 16.175
C 19.258 16.175 19.7125 16.553 19.7125 17.021
C 19.7125 17.4845 19.258 17.8625 18.7 17.8625
M 17.0125 21.4085 
C 16.639 21.4085 16.3375 21.0305 16.3375 20.5625
C 16.3375 20.099 16.639 19.721 17.0125 19.721
C 17.386 19.721 17.6875 20.099 17.6875 20.5625
C 17.6875 21.0305 17.386 21.4085 17.0125 21.4085
M 18.7 16.5125 
C 18.8845 16.5125 19.0375 16.6655 19.0375 16.85
C 19.0375 17.0345 18.8845 17.1875 18.7 17.1875
C 18.5155 17.1875 18.3625 17.0345 18.3625 16.85
C 18.3625 16.6655 18.5155 16.5125 18.7 16.5125
M 21.7375 18.2 
C 21.5935 18.2 21.454 18.2315 21.328 18.29
C 21.112 18.0155 20.8195 17.7815 20.4685 17.6015
C 20.725 17.2415 20.878 16.805 20.878 16.3325
C 20.878 16.3235 20.878 16.3145 20.878 16.3055
C 21.3685 16.202 21.7375 15.7655 21.7375 15.239
C 21.7375 14.6405 21.247 14.15 20.6485 14.15
C 20.338 14.15 20.05 14.2805 19.861 14.4875
C 19.5235 14.276 19.1275 14.15 18.7 14.15
C 18.2725 14.15 17.872 14.276 17.539 14.4875
C 17.35 14.2805 17.062 14.15 16.7515 14.15
C 16.153 14.15 15.6625 14.6405 15.6625 15.239
C 15.6625 15.761 16.0315 16.1975 16.5175 16.3055
C 16.5175 16.3145 16.5175 16.3235 16.5175 16.3325
C 16.5175 16.805 16.675 17.246 16.927 17.6015
C 16.5805 17.7815 16.288 18.0155 16.072 18.29
C 15.946 18.2315 15.8065 18.2 15.6625 18.2
C 15.1 18.2 14.65 18.65 14.65 19.2125
C 14.65 19.775 15.1 20.225 15.6625 20.225
C 15.6715 20.225 15.6805 20.225 15.6895 20.225
C 15.6715 20.333 15.6625 20.45 15.6625 20.5625
C 15.6625 21.494 16.2655 22 17.0125 22.25
C 17.467 22.25 17.8675 21.9665 18.115 21.5345
C 18.304 21.5615 18.4975 21.575 18.7 21.575
C 18.9025 21.575 19.096 21.5615 19.285 21.5345
C 19.5325 21.9665 19.933 22.25 20.3875 22.25
C 21.1345 22.25 21.7375 21.494 21.7375 20.5625
C 21.7375 20.45 21.7285 20.333 21.7105 20.225
C 21.7195 20.225 21.7285 20.225 21.7375 20.225
C 22.3 20.225 22.75 19.775 22.75 19.2125
C 22.75 18.65 22.3 18.2 21.7375 18.2
" /></svg>