<svg xmlns="http://www.w3.org/2000/svg" viewBox="0 0 24 24">
<path d="
M18.7 14.15
C19.6945 14.15 20.5 14.9555 20.5 15.95
S19.6945 17.75 18.7 17.75 16.9 16.9445 16.9 15.95 17.7055 14.15 18.7 14.15
M20.5 18.893
C20.5 19.37 20.374 20.4815 19.5145 21.7235
L19.15 19.55
L19.573 18.704
C19.294 18.6725 19.0015 18.65 18.7 18.65
S18.106 18.6725 17.827 18.704
L18.25 19.55
L17.8855 21.7235
C17.026 20.4815 16.9 19.37 16.9 18.893
C15.8245 19.208 15.1 19.775 15.1 20.45
V22.25
H22.3
V20.45
C22.3 19.775 21.58 19.208 20.5 18.893
Z
" /></svg>