<svg xmlns="http://www.w3.org/2000/svg" viewBox="0 0 24 24"> <path d=
"M14.75 7.46L12 3.93L13.97 3.54L16.71 7.07L14.75 7.46M21.62 6.1L20.84 2.18L16.91 2.96L19.65 6.5L21.62 6.1M4.16 5.5L3.18 5.69C2.1 5.91 1.4 6.96 1.61 8.04L2 10L6.9 9.03L4.16 5.5M11.81 8.05L9.07 4.5L7.1 4.91L9.85 8.44L11.81 8.05M2 10V20C2 21.11 2.9 22 4 22H13.81C13.3 21.12 13 20.1 13 19C13 15.69 15.69 13 19 13C20.1 13 21.12 13.3 22 13.81V10H2Z M20.3875 21.4085 C20.014 21.4085 19.7125 21.0305 19.7125 20.5625 C19.7125 20.099 20.014 19.721 20.3875 19.721 C20.761 19.721 21.0625 20.099 21.0625 20.5625 C21.0625 21.0305 20.761 21.4085 20.3875 21.4085 M18.7 17.8625 C18.142 17.8625 17.6875 17.4845 17.6875 17.021 C17.6875 16.553 18.142 16.175 18.7 16.175 C19.258 16.175 19.7125 16.553 19.7125 17.021 C19.7125 17.4845 19.258 17.8625 18.7 17.8625 M17.0125 21.4085 C16.639 21.4085 16.3375 21.0305 16.3375 20.5625 C16.3375 20.099 16.639 19.721 17.0125 19.721 C17.386 19.721 17.6875 20.099 17.6875 20.5625 C17.6875 21.0305 17.386 21.4085 17.0125 21.4085 M18.7 16.5125 C18.8845 16.5125 19.0375 16.6655 19.0375 16.85 C19.0375 17.0345 18.8845 17.1875 18.7 17.1875 C18.5155 17.1875 18.3625 17.0345 18.3625 16.85 C18.3625 16.6655 18.5155 16.5125 18.7 16.5125 M21.7375 18.2 C21.5935 18.2 21.454 18.2315 21.328 18.29 C21.112 18.0155 20.8195 17.7815 20.4685 17.6015 C20.725 17.2415 20.878 16.805 20.878 16.3325 C20.878 16.3235 20.878 16.3145 20.878 16.3055 C21.3685 16.202 21.7375 15.7655 21.7375 15.239 C21.7375 14.6405 21.247 14.15 20.6485 14.15 C20.338 14.15 20.05 14.2805 19.861 14.4875 C19.5235 14.276 19.1275 14.15 18.7 14.15 C18.2725 14.15 17.872 14.276 17.539 14.4875 C17.35 14.2805 17.062 14.15 16.7515 14.15 C16.153 14.15 15.6625 14.6405 15.6625 15.239 C15.6625 15.761 16.0315 16.1975 16.5175 16.3055 C16.5175 16.3145 16.5175 16.3235 16.5175 16.3325 C16.5175 16.805 16.675 17.246 16.927 17.6015 C16.5805 17.7815 16.288 18.0155 16.072 18.29 C15.946 18.2315 15.8065 18.2 15.6625 18.2 C15.1 18.2 14.65 18.65 14.65 19.2125 C14.65 19.775 15.1 20.225 15.6625 20.225 C15.6715 20.225 15.6805 20.225 15.6895 20.225 C15.6715 20.333 15.6625 20.45 15.6625 20.5625 C15.6625 21.494 16.2655 22 17.0125 22.25 C17.467 22.25 17.8675 21.9665 18.115 21.5345 C18.304 21.5615 18.4975 21.575 18.7 21.575 C18.9025 21.575 19.096 21.5615 19.285 21.5345 C19.5325 21.9665 19.933 22.25 20.3875 22.25 C21.1345 22.25 21.7375 21.494 21.7375 20.5625 C21.7375 20.45 21.7285 20.333 21.7105 20.225 C21.7195 20.225 21.7285 20.225 21.7375 20.225 C22.3 20.225 22.75 19.775 22.75 19.2125 C22.75 18.65 22.3 18.2 21.7375 18.2 Z"
 /></svg>