<svg xmlns="http://www.w3.org/2000/svg" viewBox="0 0 24 24"> <path d=
"M8.16,3L6.75,4.41L9.34,7H4C2.89,7 2,7.89 2,9V19C2,20.11 2.89,21 4,21H20C21.11,21 22,20.11 22,19V9C22,7.89 21.11,7 20,7H14.66L17.25,4.41L15.84,3L12,6.84L8.16,3M4,9H17V19H4V9M19.5,9A1,1 0 0,1 20.5,10A1,1 0 0,1 19.5,11A1,1 0 0,1 18.5,10A1,1 0 0,1 19.5,9M19.5,12A1,1 0 0,1 20.5,13A1,1 0 0,1 19.5,14A1,1 0 0,1 18.5,13A1,1 0 0,1 19.5,12Z  M10.5 9.5 C11.605 9.5 12.5 10.395 12.5 11.5 S11.605 13.5 10.5 13.5 8.5 12.605 8.5 11.5 9.395 9.5 10.5 9.5 M12.5 14.77 C12.5 15.3 12.36 16.535 11.405 17.915 L11 15.5 L11.47 14.56 C11.16 14.525 10.835 14.5 10.5 14.5 S9.84 14.525 9.53 14.56 L10 15.5 L9.595 17.915 C8.64 16.535 8.5 15.3 8.5 14.77 C7.305 15.12 6.5 15.75 6.5 16.5 V18.5 H14.5 V16.5 C14.5 15.75 13.7 15.12 12.5 14.77 Z"
 /></svg>