<svg xmlns="http://www.w3.org/2000/svg" viewBox="0 0 24 24"> <path d=
"M14.75 7.46L12 3.93L13.97 3.54L16.71 7.07L14.75 7.46M21.62 6.1L20.84 2.18L16.91 2.96L19.65 6.5L21.62 6.1M4.16 5.5L3.18 5.69C2.1 5.91 1.4 6.96 1.61 8.04L2 10L6.9 9.03L4.16 5.5M11.81 8.05L9.07 4.5L7.1 4.91L9.85 8.44L11.81 8.05M2 10V20C2 21.11 2.9 22 4 22H13.81C13.3 21.12 13 20.1 13 19C13 15.69 15.69 13 19 13C20.1 13 21.12 13.3 22 13.81V10H2Z M18.7 14.15 C19.6945 14.15 20.5 14.9555 20.5 15.95 S19.6945 17.75 18.7 17.75 16.9 16.9445 16.9 15.95 17.7055 14.15 18.7 14.15 M20.5 18.893 C20.5 19.37 20.374 20.4815 19.5145 21.7235 L19.15 19.55 L19.573 18.704 C19.294 18.6725 19.0015 18.65 18.7 18.65 S18.106 18.6725 17.827 18.704 L18.25 19.55 L17.8855 21.7235 C17.026 20.4815 16.9 19.37 16.9 18.893 C15.8245 19.208 15.1 19.775 15.1 20.45 V22.25 H22.3 V20.45 C22.3 19.775 21.58 19.208 20.5 18.893 Z"
 /></svg>