<svg xmlns="http://www.w3.org/2000/svg" viewBox="0 0 24 24"> <path d=
"M8.16,3L6.75,4.41L9.34,7H4C2.89,7 2,7.89 2,9V19C2,20.11 2.89,21 4,21H20C21.11,21 22,20.11 22,19V9C22,7.89 21.11,7 20,7H14.66L17.25,4.41L15.84,3L12,6.84L8.16,3M4,9H17V19H4V9M19.5,9A1,1 0 0,1 20.5,10A1,1 0 0,1 19.5,11A1,1 0 0,1 18.5,10A1,1 0 0,1 19.5,9M19.5,12A1,1 0 0,1 20.5,13A1,1 0 0,1 19.5,14A1,1 0 0,1 18.5,13A1,1 0 0,1 19.5,12Z  M12.375 17.765 C11.96 17.765 11.625 17.345 11.625 16.825 C11.625 16.31 11.96 15.89 12.375 15.89 C12.79 15.89 13.125 16.31 13.125 16.825 C13.125 17.345 12.79 17.765 12.375 17.765 M10.5 13.825 C9.88 13.825 9.375 13.405 9.375 12.89 C9.375 12.37 9.88 11.95 10.5 11.95 C11.12 11.95 11.625 12.37 11.625 12.89 C11.625 13.405 11.12 13.825 10.5 13.825 M8.625 17.765 C8.21 17.765 7.875 17.345 7.875 16.825 C7.875 16.31 8.21 15.89 8.625 15.89 C9.04 15.89 9.375 16.31 9.375 16.825 C9.375 17.345 9.04 17.765 8.625 17.765 M10.5 12.325 C10.705 12.325 10.875 12.495 10.875 12.7 C10.875 12.905 10.705 13.075 10.5 13.075 C10.295 13.075 10.125 12.905 10.125 12.7 C10.125 12.495 10.295 12.325 10.5 12.325 M13.875 14.2 C13.715 14.2 13.56 14.235 13.42 14.3 C13.18 13.995 12.855 13.735 12.465 13.535 C12.75 13.135 12.92 12.65 12.92 12.125 C12.92 12.115 12.92 12.105 12.92 12.095 C13.465 11.98 13.875 11.495 13.875 10.91 C13.875 10.245 13.33 9.7 12.665 9.7 C12.32 9.7 12 9.845 11.79 10.075 C11.415 9.84 10.975 9.7 10.5 9.7 C10.025 9.7 9.58 9.84 9.21 10.075 C9 9.845 8.68 9.7 8.335 9.7 C7.67 9.7 7.125 10.245 7.125 10.91 C7.125 11.49 7.535 11.975 8.075 12.095 C8.075 12.105 8.075 12.115 8.075 12.125 C8.075 12.65 8.25 13.14 8.53 13.535 C8.145 13.735 7.82 13.995 7.58 14.3 C7.44 14.235 7.285 14.2 7.125 14.2 C6.5 14.2 6 14.7 6 15.325 C6 15.95 6.5 16.45 7.125 16.45 C7.135 16.45 7.145 16.45 7.155 16.45 C7.135 16.57 7.125 16.7 7.125 16.825 C7.125 17.86 7.795 18.7 8.625 18.7 C9.13 18.7 9.575 18.385 9.85 17.905 C10.06 17.935 10.275 17.95 10.5 17.95 C10.725 17.95 10.94 17.935 11.15 17.905 C11.425 18.385 11.87 18.7 12.375 18.7 C13.205 18.7 13.875 17.86 13.875 16.825 C13.875 16.7 13.865 16.57 13.845 16.45 C13.855 16.45 13.865 16.45 13.875 16.45 C14.5 16.45 15 15.95 15 15.325 C15 14.7 14.5 14.2 13.875 14.2 Z"
 /></svg>