<svg xmlns="http://www.w3.org/2000/svg" viewBox="0 0 24 24">
<path d="

M	12.375	17.765				
C	11.96	17.765	11.625	17.345	11.625	16.825
C	11.625	16.31	11.96	15.89	12.375	15.89
C	12.79	15.89	13.125	16.31	13.125	16.825
C	13.125	17.345	12.79	17.765	12.375	17.765
M	10.5	13.825				
C	9.88	13.825	9.375	13.405	9.375	12.89
C	9.375	12.37	9.88	11.95	10.5	11.95
C	11.12	11.95	11.625	12.37	11.625	12.89
C	11.625	13.405	11.12	13.825	10.5	13.825
M	8.625	17.765				
C	8.21	17.765	7.875	17.345	7.875	16.825
C	7.875	16.31	8.21	15.89	8.625	15.89
C	9.04	15.89	9.375	16.31	9.375	16.825
C	9.375	17.345	9.04	17.765	8.625	17.765
M	10.5	12.325				
C	10.705	12.325	10.875	12.495	10.875	12.7
C	10.875	12.905	10.705	13.075	10.5	13.075
C	10.295	13.075	10.125	12.905	10.125	12.7
C	10.125	12.495	10.295	12.325	10.5	12.325
M	13.875	14.2				
C	13.715	14.2	13.56	14.235	13.42	14.3
C	13.18	13.995	12.855	13.735	12.465	13.535
C	12.75	13.135	12.92	12.65	12.92	12.125
C	12.92	12.115	12.92	12.105	12.92	12.095
C	13.465	11.98	13.875	11.495	13.875	10.91
C	13.875	10.245	13.33	9.7	12.665	9.7
C	12.32	9.7	12	9.845	11.79	10.075
C	11.415	9.84	10.975	9.7	10.5	9.7
C	10.025	9.7	9.58	9.84	9.21	10.075
C	9	9.845	8.68	9.7	8.335	9.7
C	7.67	9.7	7.125	10.245	7.125	10.91
C	7.125	11.49	7.535	11.975	8.075	12.095
C	8.075	12.105	8.075	12.115	8.075	12.125
C	8.075	12.65	8.25	13.14	8.53	13.535
C	8.145	13.735	7.82	13.995	7.58	14.3
C	7.44	14.235	7.285	14.2	7.125	14.2
C	6.5	14.2	6	14.7	6	15.325
C	6	15.95	6.5	16.45	7.125	16.45
C	7.135	16.45	7.145	16.45	7.155	16.45
C	7.135	16.57	7.125	16.7	7.125	16.825
C	7.125	17.86	7.795	18.7	8.625	18.7
C	9.13	18.7	9.575	18.385	9.85	17.905
C	10.06	17.935	10.275	17.95	10.5	17.95
C	10.725	17.95	10.94	17.935	11.15	17.905
C	11.425	18.385	11.87	18.7	12.375	18.7
C	13.205	18.7	13.875	17.86	13.875	16.825
C	13.875	16.7	13.865	16.57	13.845	16.45
C	13.855	16.45	13.865	16.45	13.875	16.45
C	14.5	16.45	15	15.95	15	15.325
C	15	14.7	14.5	14.2	13.875	14.2


Z





" /></svg>