<svg xmlns="http://www.w3.org/2000/svg" viewBox="0 0 24 24">
<path d="
M	10.5	9.5										
C	11.605	9.5	12.5	10.395	12.5	11.5						
S	11.605	13.5	10.5	13.5	8.5	12.605	8.5	11.5	9.395	9.5	10.5	9.5
M	12.5	14.77										
C	12.5	15.3	12.36	16.535	11.405	17.915						
L	11	15.5										
L	11.47	14.56										
C	11.16	14.525	10.835	14.5	10.5	14.5						
S	9.84	14.525	9.53	14.56								
L	10	15.5										
L	9.595	17.915										
C	8.64	16.535	8.5	15.3	8.5	14.77						
C	7.305	15.12	6.5	15.75	6.5	16.5						
V	18.5											
H	14.5											
V	16.5											
C	14.5	15.75	13.7	15.12	12.5	14.77						


Z
" /></svg>