<svg xmlns="http://www.w3.org/2000/svg" viewBox="0 0 24 24">


<path d="
M15.75 19.13
C14.92 19.13 14.25 18.29 14.25 17.25
C14.25 16.22 14.92 15.38 15.75 15.38
C16.58 15.38 17.25 16.22 17.25 17.25
C17.25 18.29 16.58 19.13 15.75 19.13
M12 11.25
C10.76 11.25 9.75 10.41 9.75 9.38
C9.75 8.34 10.76 7.5 12 7.5
C13.24 7.5 14.25 8.34 14.25 9.38
C14.25 10.41 13.24 11.25 12 11.25
M8.25 19.13
C7.42 19.13 6.75 18.29 6.75 17.25
C6.75 16.22 7.42 15.38 8.25 15.38
C9.08 15.38 9.75 16.22 9.75 17.25
C9.75 18.29 9.08 19.13 8.25 19.13
M12 8.25
C12.41 8.25 12.75 8.59 12.75 9
C12.75 9.41 12.41 9.75 12 9.75
C11.59 9.75 11.25 9.41 11.25 9
C11.25 8.59 11.59 8.25 12 8.25
M18.75 12
C18.43 12 18.12 12.07 17.84 12.2
C17.36 11.59 16.71 11.07 15.93 10.67
C16.5 9.87 16.84 8.9 16.84 7.85
C16.84 7.83 16.84 7.81 16.84 7.79
C17.93 7.56 18.75 6.59 18.75 5.42
C18.75 4.09 17.66 3 16.33 3
C15.64 3 15 3.29 14.58 3.75
C13.83 3.28 12.95 3 12 3
C11.05 3 10.16 3.28 9.42 3.75
C9 3.29 8.36 3 7.67 3
C6.34 3 5.25 4.09 5.25 5.42
C5.25 6.58 6.07 7.55 7.15 7.79
C7.15 7.81 7.15 7.83 7.15 7.85
C7.15 8.9 7.5 9.88 8.06 10.67
C7.29 11.07 6.64 11.59 6.16 12.2
C5.88 12.07 5.57 12 5.25 12
C4 12 3 13 3 14.25
C3 15.5 4 16.5 5.25 16.5
C5.27 16.5 5.29 16.5 5.31 16.5
C5.27 16.74 5.25 17 5.25 17.25
C5.25 19.32 6.59 21 8.25 21
C9.26 21 10.15 20.37 10.7 19.41
C11.12 19.47 11.55 19.5 12 19.5
C12.45 19.5 12.88 19.47 13.3 19.41
C13.85 20.37 14.74 21 15.75 21
C17.41 21 18.75 19.32 18.75 17.25
C18.75 17 18.73 16.74 18.69 16.5
C18.71 16.5 18.73 16.5 18.75 16.5
C20 16.5 21 15.5 21 14.25
C21 13 20 12 18.75 12" /></svg>